<svg width="11" height="5" viewBox="0 0 11 5" fill="none">
    <path d="M10.8187 4.15575C10.819 4.04993 10.7957 3.94537 10.7503 3.84976C10.705 3.75415 10.6388 3.66991 10.5566 3.60325L6.30659 0.181996C6.17985 0.0778134 6.02087 0.020859 5.8568 0.020859C5.69273 0.020859 5.53375 0.0778134 5.40701 0.181996L1.15701 3.72366C1.01236 3.8439 0.921389 4.01667 0.90412 4.20397C0.886851 4.39127 0.944695 4.57776 1.06493 4.72241C1.18516 4.86707 1.35793 4.95803 1.54523 4.9753C1.73253 4.99257 1.91902 4.93473 2.06368 4.8145L5.86034 1.64825L9.65701 4.70825C9.76098 4.79486 9.88759 4.84989 10.0219 4.8668C10.1561 4.88372 10.2924 4.86182 10.4146 4.80369C10.5368 4.74557 10.6398 4.65366 10.7114 4.53883C10.783 4.424 10.8203 4.29106 10.8187 4.15575Z" fill="#2756ED"/>
</svg>
