<svg width="31" height="32" viewBox="0 0 31 32" fill="none" xmlns="http://www.w3.org/2000/svg">
<g clip-path="url(#clip0)">
<path d="M28.7324 10.5824H22.2513V7.66563C22.2513 6.37494 21.234 5.32487 19.9837 5.32487H2.2676C1.01725 5.32487 0 6.37494 0 7.66563V9.05169C0 9.31025 0.203074 9.51981 0.453496 9.51981C0.703918 9.51981 0.906992 9.31019 0.906992 9.05169V7.66563C0.906992 6.89119 1.5173 6.26119 2.26754 6.26119H19.9836C20.7339 6.26119 21.3442 6.89119 21.3442 7.66563V19.0768C21.3442 19.8513 20.7339 20.4813 19.9836 20.4813H2.2676C1.51737 20.4813 0.907053 19.8513 0.907053 19.0768V11.2379C0.907053 10.9793 0.703979 10.7697 0.453557 10.7697C0.203135 10.7697 0 10.9793 0 11.2379V19.0768C0 20.3675 1.01725 21.4176 2.2676 21.4176H8.74872V24.3344C8.74872 25.6251 9.76597 26.6751 11.0163 26.6751H14.218C14.4685 26.6751 14.6715 26.4655 14.6715 26.207C14.6715 25.9485 14.4685 25.7389 14.218 25.7389H11.0163C10.2661 25.7389 9.65577 25.1089 9.65577 24.3344V21.4176H19.9837C20.9891 21.4176 21.8433 20.7385 22.1395 19.8015H30.0929V24.3344C30.0929 25.1089 29.4826 25.7389 28.7324 25.7389H16.2999C16.0494 25.7389 15.8464 25.9485 15.8464 26.207C15.8464 26.4655 16.0495 26.6751 16.2999 26.6751H28.7324C29.9828 26.6751 31 25.6251 31 24.3344V12.9232C31 11.6325 29.9828 10.5824 28.7324 10.5824ZM30.0929 14.413H23.7249C23.4744 14.413 23.2714 14.6226 23.2714 14.8811C23.2714 15.1396 23.4745 15.3492 23.7249 15.3492H30.0929V18.8651H22.2513V11.5188H28.7324C29.4826 11.5188 30.0929 12.1487 30.0929 12.9232V14.413Z" fill="#2756ED"/>
<path d="M7.27602 10.1935H3.77266C3.02242 10.1935 2.41211 10.8235 2.41211 11.5979V14.1059C2.41211 14.8804 3.02242 15.5104 3.77266 15.5104H7.27602C8.02626 15.5104 8.63657 14.8804 8.63657 14.1059V11.5979C8.63657 10.8235 8.02626 10.1935 7.27602 10.1935ZM3.31916 14.1059V13.3207H3.91301C4.16379 13.3207 4.36711 13.1108 4.36711 12.8519C4.36711 12.5931 4.16379 12.3832 3.91301 12.3832H3.31916V11.5979C3.31916 11.3398 3.5226 11.1298 3.77266 11.1298H5.07024V14.5741H3.77266C3.5226 14.5741 3.31916 14.3641 3.31916 14.1059ZM7.27602 14.5741H5.97844V11.1298H7.27602C7.52608 11.1298 7.72952 11.3398 7.72952 11.5979V12.3832H7.07513C6.82434 12.3832 6.62103 12.5931 6.62103 12.8519C6.62103 13.1108 6.82434 13.3207 7.07513 13.3207H7.72952V14.1059C7.72958 14.3641 7.52614 14.5741 7.27602 14.5741Z" fill="#2756ED"/>
<path d="M2.99378 16.8014C2.7433 16.8014 2.54028 17.011 2.54028 17.2695C2.54028 17.528 2.74336 17.7376 2.99378 17.7376H5.57756C5.82804 17.7376 6.03105 17.528 6.03105 17.2695C6.03105 17.011 5.82798 16.8014 5.57756 16.8014H2.99378Z" fill="#2756ED"/>
<path d="M7.1272 17.2695C7.1272 17.5281 7.33027 17.7376 7.58069 17.7376H10.1645C10.415 17.7376 10.618 17.528 10.618 17.2695C10.618 17.011 10.4149 16.8014 10.1645 16.8014H7.58069C7.33027 16.8014 7.1272 17.0109 7.1272 17.2695Z" fill="#2756ED"/>
<path d="M14.7516 17.7377C15.0021 17.7377 15.2051 17.5281 15.2051 17.2696C15.2051 17.0111 15.0021 16.8014 14.7516 16.8014H12.1679C11.9174 16.8014 11.7144 17.0111 11.7144 17.2696C11.7144 17.5281 11.9174 17.7377 12.1679 17.7377H14.7516Z" fill="#2756ED"/>
<path d="M16.3013 17.2695C16.3013 17.5281 16.5043 17.7376 16.7548 17.7376H19.3385C19.589 17.7376 19.792 17.528 19.792 17.2695C19.792 17.011 19.589 16.8014 19.3385 16.8014H16.7548C16.5043 16.8014 16.3013 17.0109 16.3013 17.2695Z" fill="#2756ED"/>
<path d="M26.7436 22.2977C26.9941 22.2977 27.1971 22.0881 27.1971 21.8296C27.1971 21.5711 26.994 21.3614 26.7436 21.3614H24.1598C23.9093 21.3614 23.7063 21.5711 23.7063 21.8296C23.7063 22.0881 23.9094 22.2977 24.1598 22.2977H26.7436Z" fill="#2756ED"/>
<path d="M17.24 8.14268C16.2776 8.14268 15.4946 8.95093 15.4946 9.94437C15.4946 10.9379 16.2776 11.7461 17.24 11.7461C18.2025 11.7461 18.9855 10.9379 18.9855 9.94437C18.9855 8.95093 18.2025 8.14268 17.24 8.14268ZM17.24 10.8099C16.7777 10.8099 16.4017 10.4216 16.4017 9.94443C16.4017 9.46725 16.7778 9.07906 17.24 9.07906C17.7023 9.07906 18.0784 9.46731 18.0784 9.94443C18.0784 10.4216 17.7023 10.8099 17.24 10.8099Z" fill="#2756ED"/>
</g>
<defs>
<clipPath id="clip0">
<rect width="31" height="32" fill="white"/>
</clipPath>
</defs>
</svg>
