<svg width="32" height="32" viewBox="0 0 32 32" fill="none" xmlns="http://www.w3.org/2000/svg">
<path d="M3.5 18.5H4.5V19.5H3.5V18.5Z" fill="#2756ED"/>
<path d="M1 20.5H2V21.5H1V20.5Z" fill="#2756ED"/>
<path d="M3 6H9V7H3V6Z" fill="#2756ED"/>
<path d="M1 6H2V7H1V6Z" fill="#2756ED"/>
<path d="M4 8H5V9H4V8Z" fill="#2756ED"/>
<path d="M27.8165 13.094C29.245 14.9455 30 17.1605 30 19.5C30 25.2895 25.29 30 19.5 30C14.274 30 9.802 26.1015 9.0965 20.9325C9.063 20.6845 8.8515 20.5 8.6015 20.5H3V21.5H8.1735C9.1295 26.946 13.923 31 19.5 31C25.841 31 31 25.8415 31 19.5C31 16.9375 30.173 14.5105 28.608 12.4825L27.8165 13.094Z" fill="#2756ED"/>
<path d="M10.5 19.5C10.5 24.4625 14.5375 28.5 19.5 28.5C24.4625 28.5 28.5 24.4625 28.5 19.5C28.5 15.778 26.2285 12.576 22.999 11.208L24.8535 9.3535C24.9475 9.26 25 9.133 25 9V1.5H24.9955C24.9955 1.4355 24.988 1.3705 24.962 1.3085C24.8845 1.1215 24.702 1 24.5 1H14.5C14.3675 1 14.24 1.0525 14.1465 1.1465L12.147 3.146C12.056 3.2365 12 3.3615 12 3.5V8H6V9H12V10.787C9.7255 12.7465 8.302 15.5215 8.043 18.5H5.5V19.5H8.511C8.7785 19.5 8.9985 19.2895 9.0105 19.0225C9.1405 16.117 10.4855 13.3865 12.704 11.5H15.3955C12.4935 12.9955 10.5 16.0165 10.5 19.5ZM23 9.793V3.707L24 2.707V8.793L23 9.793ZM22.293 3H18.707L19.707 2H23.293L22.293 3ZM14.707 2H18.293L17.293 3H13.707L14.707 2ZM13 10.5V4H17V6.5H18V4H22V10.5H13ZM15.077 12.8395L16.064 14.5485L16.93 14.0485L15.9455 12.343C16.8765 11.8785 17.908 11.593 19 11.525V13.5H20V11.5255C21.092 11.5935 22.1235 11.8795 23.0545 12.3435L22.0675 14.0525L22.9335 14.5525L23.9225 12.8395C24.8085 13.43 25.57 14.191 26.16 15.077L24.4465 16.066L24.9465 16.932L26.656 15.945C27.12 16.876 27.406 17.9075 27.474 18.9995H25.5V19.9995H27.4745C27.4065 21.0915 27.1205 22.123 26.6565 23.054L24.947 22.067L24.447 22.933L26.1605 23.922C25.57 24.808 24.809 25.5695 23.923 26.1595L22.934 24.4465L22.068 24.9465L23.055 26.6555C22.124 27.1195 21.093 27.4055 20.001 27.4735V25.5H19.001V27.4745C17.909 27.4065 16.8775 27.1205 15.9465 26.6565L16.931 24.951L16.065 24.451L15.078 26.16C14.192 25.57 13.4305 24.8085 12.8405 23.9225L14.554 22.9335L14.054 22.0675L12.3445 23.0545C11.8805 22.1235 11.5945 21.092 11.5265 20H13.5V19H11.5255C11.5935 17.908 11.8795 16.8765 12.3435 15.9455L14.053 16.9325L14.553 16.0665L12.8395 15.0775C13.43 14.1915 14.1915 13.43 15.077 12.8395Z" fill="#2756ED"/>
<path d="M19.5 21.5C20.603 21.5 21.5 20.603 21.5 19.5C21.5 19.13 21.3925 18.788 21.2165 18.4905L23.3535 16.3535L22.6465 15.6465L20.51 17.7835C20.212 17.6075 19.87 17.5 19.5 17.5C18.397 17.5 17.5 18.397 17.5 19.5C17.5 20.603 18.397 21.5 19.5 21.5ZM19.5 18.5C20.0515 18.5 20.5 18.9485 20.5 19.5C20.5 20.0515 20.0515 20.5 19.5 20.5C18.9485 20.5 18.5 20.0515 18.5 19.5C18.5 18.9485 18.9485 18.5 19.5 18.5Z" fill="#2756ED"/>
<path d="M26.1426 11.3551L26.8497 10.648L27.8495 11.6479L27.1424 12.355L26.1426 11.3551Z" fill="#2756ED"/>
</svg>
