<svg width="23" height="27" viewBox="0 0 23 27" fill="none" xmlns="http://www.w3.org/2000/svg">
<path d="M22.969 7.32574L22.9682 7.30473C22.9565 7.04538 22.9486 6.771 22.9439 6.46572C22.9219 4.977 21.7384 3.74558 20.2495 3.66236C17.1452 3.48912 14.7437 2.47687 12.6918 0.47688L12.6743 0.460194C12.0051 -0.153459 10.9955 -0.153459 10.326 0.460194L10.3085 0.47688C8.2566 2.47687 5.85513 3.48912 2.75081 3.66256C1.2621 3.74558 0.0784661 4.977 0.0564249 6.46592C0.051893 6.76914 0.0438593 7.04353 0.0321177 7.30473L0.0308818 7.35355C-0.0294742 10.519 -0.104456 14.4587 1.21349 18.0345C1.93817 20.0009 3.0357 21.7102 4.47539 23.1153C6.11509 24.7155 8.26278 25.9858 10.8587 26.891C10.9432 26.9204 11.0309 26.9443 11.1203 26.9622C11.2464 26.9874 11.3733 26.9999 11.5002 26.9999C11.6271 26.9999 11.7542 26.9874 11.88 26.9622C11.9694 26.9443 12.0578 26.9202 12.1427 26.8905C14.7355 25.9838 16.8809 24.7128 18.5192 23.1128C19.9582 21.7074 21.0558 19.9976 21.7811 18.0308C23.104 14.4442 23.0292 10.4972 22.969 7.32574ZM20.2946 17.4826C18.9046 21.2515 16.067 23.8398 11.6198 25.395C11.604 25.4004 11.5871 25.4051 11.5696 25.4086C11.5236 25.4177 11.4769 25.4177 11.4303 25.4084C11.413 25.4049 11.3961 25.4004 11.3805 25.395C6.92856 23.8427 4.08915 21.2558 2.70014 17.4868C1.4854 14.1907 1.5542 10.5742 1.61497 7.38383L1.61538 7.36611C1.62774 7.09194 1.63598 6.80478 1.64051 6.4892C1.6504 5.82817 2.17692 5.28126 2.83919 5.24438C4.59589 5.14633 6.13919 4.80685 7.55725 4.20659C8.97345 3.60715 10.2312 2.76217 11.4021 1.62344C11.4616 1.57317 11.5389 1.57297 11.5982 1.62344C12.7693 2.76217 14.0271 3.60715 15.4431 4.20659C16.8611 4.80685 18.4044 5.14633 20.1614 5.24438C20.8236 5.28126 21.3501 5.82817 21.3598 6.48941C21.3646 6.80664 21.3728 7.09379 21.3852 7.36611C21.4457 10.5602 21.5129 14.1795 20.2946 17.4826Z" fill="#2756ED"/>
<path d="M11.4998 6.77164C7.78942 6.77164 4.771 9.79027 4.771 13.5004C4.771 17.2108 7.78942 20.2294 11.4998 20.2294C15.2099 20.2294 18.2286 17.2108 18.2286 13.5004C18.2286 9.79027 15.2099 6.77164 11.4998 6.77164ZM11.4998 18.6449C8.66304 18.6449 6.35529 16.3372 6.35529 13.5004C6.35529 10.6637 8.66304 8.35593 11.4998 8.35593C14.3363 8.35593 16.6441 10.6637 16.6441 13.5004C16.6441 16.3372 14.3363 18.6449 11.4998 18.6449Z" fill="#2756ED"/>
<path d="M13.4338 11.4114L10.3085 14.5368L9.46021 13.6885C9.1508 13.3791 8.64921 13.3791 8.33981 13.6885C8.03061 13.9979 8.03061 14.4995 8.33981 14.8087L9.74839 16.2173C9.90309 16.372 10.1058 16.4492 10.3085 16.4492C10.5112 16.4492 10.7139 16.372 10.8686 16.2173L14.5542 12.5316C14.8634 12.2222 14.8634 11.7206 14.5542 11.4114C14.2448 11.1018 13.7432 11.1018 13.4338 11.4114Z" fill="#2756ED"/>
</svg>
