<svg width="15" height="15" viewBox="0 0 15 15" fill="none" xmlns="http://www.w3.org/2000/svg">
<path d="M14.6708 5.16341L12.4954 7.33873C11.7624 8.07176 10.5697 8.07176 9.83672 7.33873L7.6614 5.16341C6.92837 4.43039 6.92837 3.2377 7.6614 2.50468L9.83672 0.329358C10.5697 -0.403665 11.7624 -0.403665 12.4954 0.329358L14.6708 2.50468C15.4038 3.2377 15.4038 4.43039 14.6708 5.16341ZM8.30594 3.14922C7.92832 3.52684 7.92832 4.14125 8.30594 4.51887L10.4813 6.69419C10.8589 7.07181 11.4733 7.07181 11.8509 6.69419L14.0262 4.51887C14.4038 4.14125 14.4038 3.52684 14.0262 3.14922L11.8509 0.973899C11.4733 0.596279 10.8589 0.596278 10.4813 0.973898L8.30594 3.14922Z" fill="white"/>
<path d="M6.83638 10.0437L6.83638 13.1201C6.83638 14.1567 5.99303 15.0001 4.95638 15.0001L1.88 15.0001C0.843353 15.0001 -3.68641e-08 14.1567 -8.21776e-08 13.1201L-2.1665e-07 10.0437C-2.61964e-07 9.00703 0.843352 8.16368 1.88 8.16368L4.95637 8.16368C5.99303 8.16368 6.83638 9.00703 6.83638 10.0437ZM0.911517 13.1201C0.911517 13.6541 1.34597 14.0885 1.88 14.0885L4.95638 14.0885C5.49041 14.0885 5.92486 13.6541 5.92486 13.1201L5.92486 10.0437C5.92486 9.50965 5.49041 9.0752 4.95637 9.0752L1.88 9.0752C1.34597 9.0752 0.911517 9.50965 0.911517 10.0437L0.911517 13.1201Z" fill="white"/>
<path d="M6.83638 2.29582L6.83638 5.37219C6.83638 6.40884 5.99303 7.2522 4.95638 7.2522L1.88 7.2522C0.843353 7.2522 -3.68641e-08 6.40884 -8.21776e-08 5.37219L-2.1665e-07 2.29582C-2.61963e-07 1.25917 0.843352 0.415818 1.88 0.415818L4.95637 0.415818C5.99303 0.415818 6.83638 1.25917 6.83638 2.29582ZM0.911517 5.37219C0.911517 5.90623 1.34597 6.34068 1.88 6.34068L4.95638 6.34068C5.49041 6.34068 5.92486 5.90623 5.92486 5.37219L5.92486 2.29582C5.92486 1.76179 5.49041 1.32734 4.95637 1.32734L1.88 1.32734C1.34597 1.32734 0.911517 1.76179 0.911517 2.29582L0.911517 5.37219Z" fill="white"/>
<path d="M14.5844 10.0437L14.5844 13.1201C14.5844 14.1567 13.7411 15.0001 12.7044 15.0001L9.62805 15.0001C8.5914 15.0001 7.74805 14.1567 7.74805 13.1201L7.74805 10.0437C7.74805 9.00703 8.5914 8.16368 9.62805 8.16368L12.7044 8.16368C13.7411 8.16368 14.5844 9.00703 14.5844 10.0437ZM8.65956 13.1201C8.65956 13.6541 9.09402 14.0885 9.62805 14.0885L12.7044 14.0885C13.2385 14.0885 13.6729 13.6541 13.6729 13.1201L13.6729 10.0437C13.6729 9.50965 13.2385 9.0752 12.7044 9.0752L9.62805 9.0752C9.09402 9.0752 8.65956 9.50965 8.65956 10.0437L8.65956 13.1201Z" fill="white"/>
</svg>
