<svg width="25" height="25" viewBox="0 0 25 25" fill="none" xmlns="http://www.w3.org/2000/svg">
<path d="M7.97482 19.4455C6.53335 19.4455 5.36487 20.614 5.36487 22.0555C5.36487 23.4969 6.53341 24.6654 7.97482 24.6654C9.41629 24.6654 10.5848 23.4969 10.5848 22.0555C10.5848 20.614 9.41629 19.4455 7.97482 19.4455ZM7.97482 23.5055C7.17402 23.5055 6.52486 22.8563 6.52486 22.0555C6.52486 21.2547 7.17402 20.6055 7.97482 20.6055C8.77563 20.6055 9.42478 21.2547 9.42478 22.0555C9.42484 22.8563 8.77563 23.5055 7.97482 23.5055Z" fill="white"/>
<path d="M18.9947 19.4455C17.5533 19.4455 16.3848 20.614 16.3848 22.0555C16.3848 23.4969 17.5533 24.6654 18.9947 24.6654C20.4361 24.6654 21.6047 23.4969 21.6047 22.0555C21.6047 20.614 20.4362 19.4455 18.9947 19.4455ZM18.9947 23.5055C18.1939 23.5055 17.5448 22.8563 17.5448 22.0555C17.5448 21.2547 18.1939 20.6055 18.9947 20.6055C19.7955 20.6055 20.4447 21.2547 20.4447 22.0555C20.4447 22.8563 19.7955 23.5055 18.9947 23.5055Z" fill="white"/>
<path d="M24.8818 4.22067C24.761 4.08873 24.5958 4.00613 24.4178 3.98865L5.53897 3.72765L5.01698 2.13265C4.64924 1.06641 3.65078 0.34659 2.52298 0.334656H0.579997C0.259664 0.334656 0 0.594319 0 0.914652C0 1.23498 0.259664 1.49465 0.579997 1.49465H2.52298C3.1536 1.50858 3.70889 1.91351 3.91499 2.50965L7.59797 13.6166L7.30799 14.2835C6.98455 15.1176 7.08169 16.0563 7.56899 16.8065C8.05163 17.5433 8.86359 17.998 9.74399 18.0245H21.0249C21.3453 18.0245 21.6049 17.7648 21.6049 17.4445C21.6049 17.1242 21.3453 16.8645 21.0249 16.8645H9.74394C9.24676 16.8521 8.7891 16.5905 8.52594 16.1685C8.26572 15.7516 8.21227 15.2381 8.38095 14.7765L8.61297 14.2545L20.8219 12.9785C22.1629 12.8308 23.2661 11.8554 23.5769 10.5425L24.9689 4.71357C25.0316 4.54572 24.9983 4.35694 24.8818 4.22067ZM22.4459 10.2816C22.2576 11.1267 21.54 11.7501 20.6769 11.8186L8.61297 13.0655L5.91598 4.88764L23.6928 5.14864L22.4459 10.2816Z" fill="white"/>
</svg>
