<svg width="9" height="7" viewBox="0 0 9 7" fill="none" xmlns="http://www.w3.org/2000/svg">
<path d="M7.75015 0.629168L3.15681 5.2225L1.23931 3.305C1.13803 3.20372 1.00067 3.14682 0.857436 3.14682C0.714205 3.14682 0.57684 3.20372 0.475561 3.305C0.374281 3.40628 0.317383 3.54365 0.317383 3.68688C0.317383 3.7578 0.331352 3.82802 0.358492 3.89355C0.385632 3.95907 0.425412 4.0186 0.475561 4.06875L2.77223 6.36542C2.98348 6.57667 3.32473 6.57667 3.53598 6.36542L8.50848 1.39292C8.55896 1.34224 8.5989 1.28206 8.62597 1.21586C8.65305 1.14965 8.66673 1.07873 8.66623 1.00721C8.66572 0.935678 8.65104 0.86496 8.62304 0.799142C8.59503 0.733323 8.55425 0.673711 8.50306 0.623752C8.30265 0.417918 7.9614 0.417918 7.75015 0.629168Z" fill="white"/>
</svg>
