<svg width="11" height="11" viewBox="0 0 11 11" fill="none" xmlns="http://www.w3.org/2000/svg">
<path d="M6.78331 5L10.8333 0.950003C10.9243 0.843724 10.9719 0.707015 10.9665 0.567195C10.9611 0.427375 10.9031 0.294743 10.8042 0.195801C10.7052 0.0968597 10.5726 0.038897 10.4328 0.0334963C10.293 0.0280957 10.1563 0.0756549 10.05 0.16667L5.99998 4.21667L1.94998 0.161114C1.8437 0.0700992 1.70699 0.0225405 1.56717 0.0279412C1.42735 0.0333418 1.29472 0.091304 1.19578 0.190245C1.09684 0.289187 1.03887 0.42182 1.03347 0.56164C1.02807 0.70146 1.07563 0.838169 1.16665 0.944447L5.21665 5L1.16109 9.05C1.10293 9.09981 1.0557 9.1611 1.02235 9.23002C0.989008 9.29895 0.970269 9.37402 0.967314 9.45053C0.964359 9.52704 0.977251 9.60334 1.00518 9.67463C1.03311 9.74592 1.07548 9.81067 1.12962 9.86481C1.18376 9.91895 1.24851 9.96132 1.3198 9.98925C1.39109 10.0172 1.46739 10.0301 1.5439 10.0271C1.62041 10.0242 1.69548 10.0054 1.76441 9.97207C1.83333 9.93873 1.89462 9.89149 1.94442 9.83334L5.99998 5.78334L10.05 9.83334C10.1563 9.92435 10.293 9.97191 10.4328 9.96651C10.5726 9.96111 10.7052 9.90315 10.8042 9.8042C10.9031 9.70526 10.9611 9.57263 10.9665 9.43281C10.9719 9.29299 10.9243 9.15628 10.8333 9.05L6.78331 5Z" fill="white"/>
</svg>
