<svg width="11" height="11" viewBox="0 0 11 11" fill="none" xmlns="http://www.w3.org/2000/svg">
<path d="M6.78321 5L10.8332 0.950003C10.9242 0.843724 10.9718 0.707015 10.9664 0.567195C10.961 0.427375 10.903 0.294743 10.8041 0.195801C10.7051 0.0968597 10.5725 0.038897 10.4327 0.0334963C10.2929 0.0280957 10.1562 0.0756549 10.0499 0.16667L5.99988 4.21667L1.94988 0.161114C1.8436 0.0700992 1.70689 0.0225405 1.56707 0.0279412C1.42725 0.0333418 1.29462 0.091304 1.19568 0.190245C1.09673 0.289187 1.03877 0.42182 1.03337 0.56164C1.02797 0.70146 1.07553 0.838169 1.16654 0.944447L5.21654 5L1.16099 9.05C1.10283 9.09981 1.0556 9.1611 1.02225 9.23002C0.988905 9.29895 0.970166 9.37402 0.967211 9.45053C0.964256 9.52704 0.977148 9.60334 1.00508 9.67463C1.03301 9.74592 1.07537 9.81067 1.12952 9.86481C1.18366 9.91895 1.24841 9.96132 1.3197 9.98925C1.39099 10.0172 1.46728 10.0301 1.5438 10.0271C1.62031 10.0242 1.69538 10.0054 1.7643 9.97207C1.83323 9.93873 1.89452 9.89149 1.94432 9.83334L5.99988 5.78334L10.0499 9.83334C10.1562 9.92435 10.2929 9.97191 10.4327 9.96651C10.5725 9.96111 10.7051 9.90315 10.8041 9.8042C10.903 9.70526 10.961 9.57263 10.9664 9.43281C10.9718 9.29299 10.9242 9.15628 10.8332 9.05L6.78321 5Z" fill="#9F9F9F"/>
</svg>
