<svg width="149" height="48" viewBox="0 0 149 48" fill="none" xmlns="http://www.w3.org/2000/svg">
<path d="M24.3555 32.7249V12.3595H26.6365V32.7101H24.3555V32.7249Z" fill="#122699"/>
<path d="M35.6287 32.7249H33.4062V12.3595H34.5905L40.6877 12.3891C41.8136 12.4038 42.8663 12.6107 43.8606 12.995C44.8549 13.3792 45.7029 13.9113 46.434 14.5763C47.1651 15.2414 47.7499 16.0099 48.1739 16.8671C48.598 17.739 48.8027 18.6405 48.8027 19.5864C48.8027 20.5766 48.5833 21.5077 48.1593 22.3648C47.7207 23.2368 47.1358 23.9905 46.3901 24.626C45.6444 25.2763 44.7671 25.7788 43.7729 26.1482C42.764 26.5177 41.6966 26.7099 40.5707 26.7099H35.6287V32.7249ZM46.4925 19.6012C46.4925 18.9361 46.3316 18.3006 46.0246 17.7095C45.7175 17.1035 45.2935 16.5863 44.7525 16.1429C44.2115 15.6995 43.5828 15.3448 42.8663 15.0936C42.1353 14.8424 41.3749 14.7093 40.5707 14.7093L35.6287 14.6502V24.4339H40.5707C41.3749 24.4339 42.1499 24.3009 42.8663 24.0496C43.5828 23.7984 44.2261 23.4437 44.7525 23.0151C45.2935 22.5717 45.7175 22.0693 46.0246 21.4929C46.3316 20.8869 46.4925 20.2662 46.4925 19.6012Z" fill="#122699"/>
<path d="M24.8819 3.12265C28.3765 2.87141 31.6809 3.6547 34.5321 5.20648C34.9415 5.42817 35.4094 5.45773 35.8335 5.28038C36.6376 4.95524 36.7108 3.83204 35.9651 3.40345C32.7776 1.57086 29.0491 0.610233 25.072 0.817138C14.7785 1.37874 6.54653 9.98008 6.29797 20.3992C6.0494 31.3357 14.4714 40.3804 25.1013 40.9568C25.73 40.9863 26.2564 40.4838 26.2856 39.8483C26.3002 39.2276 25.8177 38.7104 25.2036 38.6808C15.6704 38.1488 8.14028 29.9317 8.5643 20.0741C8.95908 11.5023 16.4161 3.74337 24.8819 3.12265Z" fill="#122699"/>
<path d="M25.2036 42.1096C14.0474 41.6662 5.27446 32.3407 5.27446 20.9314C5.27446 14.5173 8.11103 8.75352 12.5852 4.86666C13.2578 4.29028 13.0239 3.19664 12.1904 2.93062H12.1758C11.8103 2.81239 11.4155 2.88628 11.1231 3.13752C6.15175 7.45297 3.00812 13.8227 3.00812 20.9314C3.00812 33.4935 12.8338 43.7796 25.1159 44.3708C25.7446 44.4003 26.271 43.8979 26.2856 43.2771C26.3149 42.6564 25.8177 42.1392 25.2036 42.1096Z" fill="#0F41E2"/>
<path d="M24.9551 45.5235C14.2228 45.0801 5.47917 37.5576 2.73032 27.4636C2.56948 26.8577 1.95537 26.503 1.35589 26.6508C0.741787 26.8133 0.376248 27.4488 0.551707 28.0548C3.54912 39.0946 13.1262 47.3117 24.8673 47.7994C25.5107 47.829 26.0371 47.2969 26.0371 46.6615C26.0371 46.0555 25.5692 45.553 24.9551 45.5235Z" fill="#0B95FA"/>
<path d="M57.3563 9.34473H56.7715V34.7202H57.3563V9.34473Z" fill="#122699"/>
<path d="M75.2 31.288C74.144 31.288 73.208 31.084 72.392 30.676C71.588 30.256 70.952 29.68 70.484 28.948C70.028 28.204 69.8 27.358 69.8 26.41V17.482C69.8 17.314 69.848 17.182 69.944 17.086C70.052 16.99 70.184 16.942 70.34 16.942C70.508 16.942 70.64 16.99 70.736 17.086C70.832 17.182 70.88 17.314 70.88 17.482V26.41C70.88 27.154 71.06 27.814 71.42 28.39C71.792 28.954 72.302 29.398 72.95 29.722C73.61 30.046 74.36 30.208 75.2 30.208C76.052 30.208 76.802 30.046 77.45 29.722C78.098 29.398 78.608 28.954 78.98 28.39C79.352 27.814 79.538 27.154 79.538 26.41V17.482C79.538 17.314 79.586 17.182 79.682 17.086C79.79 16.99 79.922 16.942 80.078 16.942C80.246 16.942 80.378 16.99 80.474 17.086C80.57 17.182 80.618 17.314 80.618 17.482V26.41C80.618 27.358 80.384 28.204 79.916 28.948C79.46 29.68 78.824 30.256 78.008 30.676C77.192 31.084 76.256 31.288 75.2 31.288ZM84.0341 31C83.8781 31 83.7461 30.952 83.6381 30.856C83.5421 30.748 83.4941 30.616 83.4941 30.46V17.482C83.4941 17.314 83.5421 17.182 83.6381 17.086C83.7461 16.99 83.8781 16.942 84.0341 16.942C84.2021 16.942 84.3341 16.99 84.4301 17.086C84.5261 17.182 84.5741 17.314 84.5741 17.482V26.284L90.1541 21.208C90.3941 21.004 90.6221 21.016 90.8381 21.244C91.0661 21.496 91.0601 21.724 90.8201 21.928L87.0041 25.402L90.9281 30.208C91.1321 30.46 91.1081 30.694 90.8561 30.91C90.6041 31.126 90.3701 31.102 90.1541 30.838L86.2481 26.068L84.5741 27.598V30.46C84.5741 30.616 84.5261 30.748 84.4301 30.856C84.3341 30.952 84.2021 31 84.0341 31ZM93.83 31C93.674 31 93.542 30.952 93.434 30.856C93.338 30.748 93.29 30.616 93.29 30.46V21.694C93.29 21.526 93.338 21.394 93.434 21.298C93.542 21.202 93.674 21.154 93.83 21.154C93.998 21.154 94.13 21.202 94.226 21.298C94.322 21.394 94.37 21.526 94.37 21.694V22.81C94.718 22.258 95.156 21.826 95.684 21.514C96.224 21.202 96.818 21.046 97.466 21.046C97.922 21.046 98.276 21.1 98.528 21.208C98.78 21.316 98.876 21.508 98.816 21.784C98.78 21.964 98.696 22.072 98.564 22.108C98.432 22.144 98.27 22.15 98.078 22.126C97.898 22.09 97.694 22.072 97.466 22.072C96.866 22.072 96.332 22.198 95.864 22.45C95.396 22.702 95.03 23.05 94.766 23.494C94.502 23.926 94.37 24.424 94.37 24.988V30.46C94.37 30.616 94.322 30.748 94.226 30.856C94.13 30.952 93.998 31 93.83 31ZM104.422 31.108C103.462 31.108 102.598 30.892 101.83 30.46C101.074 30.016 100.474 29.416 100.03 28.66C99.5979 27.892 99.3819 27.034 99.3819 26.086C99.3819 25.126 99.5979 24.268 100.03 23.512C100.474 22.744 101.074 22.144 101.83 21.712C102.598 21.268 103.462 21.046 104.422 21.046C105.382 21.046 106.24 21.268 106.996 21.712C107.752 22.144 108.346 22.744 108.778 23.512C109.222 24.268 109.444 25.126 109.444 26.086V30.46C109.444 30.616 109.396 30.748 109.3 30.856C109.204 30.952 109.072 31 108.904 31C108.748 31 108.616 30.952 108.508 30.856C108.412 30.748 108.364 30.616 108.364 30.46V29.056C107.968 29.68 107.428 30.178 106.744 30.55C106.06 30.922 105.286 31.108 104.422 31.108ZM104.422 30.1C105.178 30.1 105.85 29.926 106.438 29.578C107.038 29.218 107.506 28.738 107.842 28.138C108.19 27.526 108.364 26.842 108.364 26.086C108.364 25.318 108.19 24.634 107.842 24.034C107.506 23.422 107.038 22.942 106.438 22.594C105.85 22.234 105.178 22.054 104.422 22.054C103.678 22.054 103.006 22.234 102.406 22.594C101.806 22.942 101.332 23.422 100.984 24.034C100.636 24.634 100.462 25.318 100.462 26.086C100.462 26.842 100.636 27.526 100.984 28.138C101.332 28.738 101.806 29.218 102.406 29.578C103.006 29.926 103.678 30.1 104.422 30.1ZM112.499 31C112.343 31 112.211 30.952 112.103 30.856C112.007 30.748 111.959 30.616 111.959 30.46V21.694C111.959 21.526 112.007 21.394 112.103 21.298C112.211 21.202 112.343 21.154 112.499 21.154C112.667 21.154 112.799 21.202 112.895 21.298C112.991 21.394 113.039 21.526 113.039 21.694V30.46C113.039 30.616 112.991 30.748 112.895 30.856C112.799 30.952 112.667 31 112.499 31ZM112.481 19.084C112.253 19.084 112.055 19.006 111.887 18.85C111.731 18.682 111.653 18.478 111.653 18.238C111.653 17.962 111.737 17.758 111.905 17.626C112.085 17.482 112.283 17.41 112.499 17.41C112.703 17.41 112.889 17.482 113.057 17.626C113.237 17.758 113.327 17.962 113.327 18.238C113.327 18.478 113.243 18.682 113.075 18.85C112.919 19.006 112.721 19.084 112.481 19.084ZM116.644 31C116.488 31 116.356 30.952 116.248 30.856C116.152 30.748 116.104 30.616 116.104 30.46V21.694C116.104 21.526 116.152 21.394 116.248 21.298C116.356 21.202 116.488 21.154 116.644 21.154C116.812 21.154 116.944 21.202 117.04 21.298C117.136 21.394 117.184 21.526 117.184 21.694V22.63C117.58 22.138 118.072 21.748 118.66 21.46C119.26 21.172 119.908 21.028 120.604 21.028C121.468 21.028 122.242 21.208 122.926 21.568C123.622 21.916 124.168 22.432 124.564 23.116C124.96 23.788 125.158 24.622 125.158 25.618V30.46C125.158 30.616 125.104 30.748 124.996 30.856C124.9 30.952 124.774 31 124.618 31C124.462 31 124.33 30.952 124.222 30.856C124.126 30.748 124.078 30.616 124.078 30.46V25.618C124.078 24.826 123.922 24.172 123.61 23.656C123.31 23.14 122.896 22.756 122.368 22.504C121.852 22.24 121.264 22.108 120.604 22.108C119.956 22.108 119.374 22.234 118.858 22.486C118.342 22.726 117.934 23.062 117.634 23.494C117.334 23.926 117.184 24.412 117.184 24.952V30.46C117.184 30.616 117.136 30.748 117.04 30.856C116.944 30.952 116.812 31 116.644 31ZM132.031 31.09C131.083 31.09 130.237 30.88 129.493 30.46C128.761 30.028 128.185 29.434 127.765 28.678C127.345 27.922 127.135 27.058 127.135 26.086C127.135 25.102 127.333 24.238 127.729 23.494C128.125 22.738 128.671 22.144 129.367 21.712C130.063 21.28 130.861 21.064 131.761 21.064C132.649 21.064 133.435 21.274 134.119 21.694C134.803 22.102 135.337 22.672 135.721 23.404C136.105 24.124 136.297 24.958 136.297 25.906C136.297 26.062 136.249 26.188 136.153 26.284C136.057 26.368 135.931 26.41 135.775 26.41H128.233C128.269 27.13 128.455 27.766 128.791 28.318C129.127 28.87 129.571 29.302 130.123 29.614C130.687 29.926 131.323 30.082 132.031 30.082C132.499 30.082 132.967 30.004 133.435 29.848C133.915 29.68 134.293 29.464 134.569 29.2C134.665 29.104 134.779 29.056 134.911 29.056C135.055 29.044 135.175 29.08 135.271 29.164C135.403 29.272 135.469 29.392 135.469 29.524C135.481 29.656 135.427 29.776 135.307 29.884C134.923 30.232 134.419 30.52 133.795 30.748C133.183 30.976 132.595 31.09 132.031 31.09ZM131.761 22.072C131.137 22.072 130.573 22.216 130.069 22.504C129.565 22.792 129.151 23.194 128.827 23.71C128.515 24.214 128.323 24.802 128.251 25.474H135.253C135.169 24.466 134.809 23.65 134.173 23.026C133.537 22.39 132.733 22.072 131.761 22.072Z" fill="#122699"/>
</svg>
