<svg width="153" height="46" viewBox="0 0 153 46" fill="none" xmlns="http://www.w3.org/2000/svg">
<path d="M22.8035 31.3124V11.7303H24.9198V31.2982H22.8035V31.3124Z" fill="white"/>
<path d="M33.2627 31.3124H31.2007V11.7303H32.2995L37.9566 11.7587C39.0012 11.7729 39.978 11.9719 40.9005 12.3413C41.823 12.7108 42.6098 13.2224 43.2881 13.8619C43.9664 14.5013 44.5091 15.2403 44.9025 16.0645C45.2959 16.9029 45.4858 17.7698 45.4858 18.6792C45.4858 19.6313 45.2823 20.5266 44.8889 21.3508C44.4819 22.1892 43.9393 22.914 43.2474 23.525C42.5555 24.1503 41.7416 24.6334 40.8191 24.9887C39.883 25.344 38.8927 25.5287 37.8481 25.5287H33.2627V31.3124ZM43.3424 18.6934C43.3424 18.054 43.1931 17.4429 42.9082 16.8745C42.6234 16.2919 42.2299 15.7945 41.728 15.3682C41.226 14.9419 40.6427 14.6008 39.978 14.3592C39.2997 14.1177 38.5942 13.9898 37.8481 13.9898L33.2627 13.9329V23.3403H37.8481C38.5942 23.3403 39.3132 23.2124 39.978 22.9708C40.6427 22.7292 41.2396 22.3882 41.728 21.9761C42.2299 21.5498 42.6234 21.0666 42.9082 20.5124C43.1931 19.9298 43.3424 19.3329 43.3424 18.6934Z" fill="white"/>
<path d="M23.2919 2.84877C26.5342 2.60719 29.6002 3.36035 32.2456 4.85246C32.6254 5.06561 33.0595 5.09403 33.453 4.92351C34.1991 4.61088 34.2669 3.53088 33.575 3.11877C30.6176 1.35667 27.1583 0.432982 23.4683 0.631929C13.9178 1.17193 6.28003 9.44246 6.04941 19.4609C5.81879 29.9767 13.6329 38.6735 23.4954 39.2277C24.0788 39.2561 24.5672 38.773 24.5943 38.1619C24.6078 37.5651 24.1602 37.0677 23.5904 37.0393C14.7453 36.5277 7.75874 28.6267 8.15216 19.1482C8.51844 10.9061 15.4372 3.44561 23.2919 2.84877Z" fill="white"/>
<path d="M23.5904 40.3361C13.2395 39.9098 5.09982 30.943 5.09982 19.9725C5.09982 13.8051 7.73164 8.26298 11.8829 4.52561C12.5069 3.9714 12.2899 2.91983 11.5166 2.66404H11.503C11.1639 2.55035 10.7976 2.6214 10.5263 2.86298C5.91379 7.01246 2.99707 13.1372 2.99707 19.9725C2.99707 32.0514 12.1135 41.9419 23.509 42.5104C24.0924 42.5388 24.5808 42.0556 24.5943 41.4588C24.6215 40.8619 24.1602 40.3646 23.5904 40.3361Z" fill="white"/>
<path d="M23.3597 43.6188C13.4022 43.1924 5.28962 35.9593 2.73919 26.2535C2.58997 25.6709 2.02019 25.3298 1.46398 25.4719C0.8942 25.6282 0.555047 26.2393 0.717841 26.8219C3.49889 37.4372 12.3847 45.3382 23.2783 45.8072C23.8752 45.8356 24.3636 45.324 24.3636 44.713C24.3636 44.1303 23.9295 43.6472 23.3597 43.6188Z" fill="white"/>
<path d="M53.4223 8.83142H52.8796V33.2309H53.4223V8.83142Z" fill="white"/>
<path d="M69.5083 29.788C68.4523 29.788 67.5163 29.584 66.7003 29.176C65.8963 28.756 65.2603 28.18 64.7923 27.448C64.3363 26.704 64.1083 25.858 64.1083 24.91V15.982C64.1083 15.814 64.1563 15.682 64.2523 15.586C64.3603 15.49 64.4923 15.442 64.6483 15.442C64.8163 15.442 64.9483 15.49 65.0443 15.586C65.1403 15.682 65.1883 15.814 65.1883 15.982V24.91C65.1883 25.654 65.3683 26.314 65.7283 26.89C66.1003 27.454 66.6103 27.898 67.2583 28.222C67.9183 28.546 68.6683 28.708 69.5083 28.708C70.3603 28.708 71.1104 28.546 71.7584 28.222C72.4064 27.898 72.9164 27.454 73.2883 26.89C73.6604 26.314 73.8464 25.654 73.8464 24.91V15.982C73.8464 15.814 73.8944 15.682 73.9904 15.586C74.0984 15.49 74.2304 15.442 74.3863 15.442C74.5544 15.442 74.6864 15.49 74.7823 15.586C74.8784 15.682 74.9264 15.814 74.9264 15.982V24.91C74.9264 25.858 74.6924 26.704 74.2244 27.448C73.7684 28.18 73.1324 28.756 72.3164 29.176C71.5004 29.584 70.5644 29.788 69.5083 29.788ZM78.3424 29.5C78.1864 29.5 78.0544 29.452 77.9464 29.356C77.8504 29.248 77.8024 29.116 77.8024 28.96V15.982C77.8024 15.814 77.8504 15.682 77.9464 15.586C78.0544 15.49 78.1864 15.442 78.3424 15.442C78.5104 15.442 78.6424 15.49 78.7384 15.586C78.8344 15.682 78.8824 15.814 78.8824 15.982V24.784L84.4624 19.708C84.7024 19.504 84.9304 19.516 85.1464 19.744C85.3744 19.996 85.3684 20.224 85.1284 20.428L81.3124 23.902L85.2364 28.708C85.4404 28.96 85.4164 29.194 85.1644 29.41C84.9124 29.626 84.6784 29.602 84.4624 29.338L80.5564 24.568L78.8824 26.098V28.96C78.8824 29.116 78.8344 29.248 78.7384 29.356C78.6424 29.452 78.5104 29.5 78.3424 29.5ZM88.1383 29.5C87.9823 29.5 87.8503 29.452 87.7423 29.356C87.6463 29.248 87.5983 29.116 87.5983 28.96V20.194C87.5983 20.026 87.6463 19.894 87.7423 19.798C87.8503 19.702 87.9823 19.654 88.1383 19.654C88.3063 19.654 88.4383 19.702 88.5343 19.798C88.6303 19.894 88.6783 20.026 88.6783 20.194V21.31C89.0263 20.758 89.4643 20.326 89.9923 20.014C90.5323 19.702 91.1263 19.546 91.7744 19.546C92.2304 19.546 92.5843 19.6 92.8363 19.708C93.0883 19.816 93.1843 20.008 93.1243 20.284C93.0884 20.464 93.0044 20.572 92.8723 20.608C92.7403 20.644 92.5783 20.65 92.3863 20.626C92.2063 20.59 92.0024 20.572 91.7744 20.572C91.1744 20.572 90.6403 20.698 90.1723 20.95C89.7043 21.202 89.3383 21.55 89.0743 21.994C88.8103 22.426 88.6783 22.924 88.6783 23.488V28.96C88.6783 29.116 88.6303 29.248 88.5343 29.356C88.4383 29.452 88.3063 29.5 88.1383 29.5ZM98.7302 29.608C97.7702 29.608 96.9062 29.392 96.1382 28.96C95.3822 28.516 94.7822 27.916 94.3382 27.16C93.9062 26.392 93.6902 25.534 93.6902 24.586C93.6902 23.626 93.9062 22.768 94.3382 22.012C94.7822 21.244 95.3822 20.644 96.1382 20.212C96.9062 19.768 97.7702 19.546 98.7302 19.546C99.6902 19.546 100.548 19.768 101.304 20.212C102.06 20.644 102.654 21.244 103.086 22.012C103.53 22.768 103.752 23.626 103.752 24.586V28.96C103.752 29.116 103.704 29.248 103.608 29.356C103.512 29.452 103.38 29.5 103.212 29.5C103.056 29.5 102.924 29.452 102.816 29.356C102.72 29.248 102.672 29.116 102.672 28.96V27.556C102.276 28.18 101.736 28.678 101.052 29.05C100.368 29.422 99.5942 29.608 98.7302 29.608ZM98.7302 28.6C99.4862 28.6 100.158 28.426 100.746 28.078C101.346 27.718 101.814 27.238 102.15 26.638C102.498 26.026 102.672 25.342 102.672 24.586C102.672 23.818 102.498 23.134 102.15 22.534C101.814 21.922 101.346 21.442 100.746 21.094C100.158 20.734 99.4862 20.554 98.7302 20.554C97.9862 20.554 97.3142 20.734 96.7142 21.094C96.1142 21.442 95.6402 21.922 95.2922 22.534C94.9442 23.134 94.7702 23.818 94.7702 24.586C94.7702 25.342 94.9442 26.026 95.2922 26.638C95.6402 27.238 96.1142 27.718 96.7142 28.078C97.3142 28.426 97.9862 28.6 98.7302 28.6ZM106.807 29.5C106.651 29.5 106.519 29.452 106.411 29.356C106.315 29.248 106.267 29.116 106.267 28.96V20.194C106.267 20.026 106.315 19.894 106.411 19.798C106.519 19.702 106.651 19.654 106.807 19.654C106.975 19.654 107.107 19.702 107.203 19.798C107.299 19.894 107.347 20.026 107.347 20.194V28.96C107.347 29.116 107.299 29.248 107.203 29.356C107.107 29.452 106.975 29.5 106.807 29.5ZM106.789 17.584C106.561 17.584 106.363 17.506 106.195 17.35C106.039 17.182 105.961 16.978 105.961 16.738C105.961 16.462 106.045 16.258 106.213 16.126C106.393 15.982 106.591 15.91 106.807 15.91C107.011 15.91 107.197 15.982 107.365 16.126C107.545 16.258 107.635 16.462 107.635 16.738C107.635 16.978 107.551 17.182 107.383 17.35C107.227 17.506 107.029 17.584 106.789 17.584ZM110.952 29.5C110.796 29.5 110.664 29.452 110.556 29.356C110.46 29.248 110.412 29.116 110.412 28.96V20.194C110.412 20.026 110.46 19.894 110.556 19.798C110.664 19.702 110.796 19.654 110.952 19.654C111.12 19.654 111.252 19.702 111.348 19.798C111.444 19.894 111.492 20.026 111.492 20.194V21.13C111.888 20.638 112.38 20.248 112.968 19.96C113.568 19.672 114.216 19.528 114.912 19.528C115.776 19.528 116.55 19.708 117.234 20.068C117.93 20.416 118.476 20.932 118.872 21.616C119.268 22.288 119.466 23.122 119.466 24.118V28.96C119.466 29.116 119.412 29.248 119.304 29.356C119.208 29.452 119.082 29.5 118.926 29.5C118.77 29.5 118.638 29.452 118.53 29.356C118.434 29.248 118.386 29.116 118.386 28.96V24.118C118.386 23.326 118.23 22.672 117.918 22.156C117.618 21.64 117.204 21.256 116.676 21.004C116.16 20.74 115.572 20.608 114.912 20.608C114.264 20.608 113.682 20.734 113.166 20.986C112.65 21.226 112.242 21.562 111.942 21.994C111.642 22.426 111.492 22.912 111.492 23.452V28.96C111.492 29.116 111.444 29.248 111.348 29.356C111.252 29.452 111.12 29.5 110.952 29.5ZM126.339 29.59C125.391 29.59 124.545 29.38 123.801 28.96C123.069 28.528 122.493 27.934 122.073 27.178C121.653 26.422 121.443 25.558 121.443 24.586C121.443 23.602 121.641 22.738 122.037 21.994C122.433 21.238 122.979 20.644 123.675 20.212C124.371 19.78 125.169 19.564 126.069 19.564C126.957 19.564 127.743 19.774 128.427 20.194C129.111 20.602 129.645 21.172 130.029 21.904C130.413 22.624 130.605 23.458 130.605 24.406C130.605 24.562 130.557 24.688 130.461 24.784C130.365 24.868 130.239 24.91 130.083 24.91H122.541C122.577 25.63 122.763 26.266 123.099 26.818C123.435 27.37 123.879 27.802 124.431 28.114C124.995 28.426 125.631 28.582 126.339 28.582C126.807 28.582 127.275 28.504 127.743 28.348C128.223 28.18 128.601 27.964 128.877 27.7C128.973 27.604 129.087 27.556 129.219 27.556C129.363 27.544 129.483 27.58 129.579 27.664C129.711 27.772 129.777 27.892 129.777 28.024C129.789 28.156 129.735 28.276 129.615 28.384C129.231 28.732 128.727 29.02 128.103 29.248C127.491 29.476 126.903 29.59 126.339 29.59ZM126.069 20.572C125.445 20.572 124.881 20.716 124.377 21.004C123.873 21.292 123.459 21.694 123.135 22.21C122.823 22.714 122.631 23.302 122.559 23.974H129.561C129.477 22.966 129.117 22.15 128.481 21.526C127.845 20.89 127.041 20.572 126.069 20.572Z" fill="white"/>
</svg>
