<svg width="11" height="6" viewBox="0 0 11 6" fill="none" xmlns="http://www.w3.org/2000/svg">
<path d="M0.541675 1.20373C0.541314 1.30956 0.56467 1.41411 0.610024 1.50972C0.655377 1.60533 0.721577 1.68957 0.803759 1.75623L5.05376 5.17749C5.1805 5.28167 5.33948 5.33862 5.50355 5.33862C5.66762 5.33862 5.8266 5.28167 5.95334 5.17749L10.2033 1.63582C10.348 1.51559 10.439 1.34282 10.4562 1.15551C10.4735 0.968213 10.4157 0.781722 10.2954 0.637068C10.1752 0.492414 10.0024 0.401448 9.81512 0.384179C9.62782 0.366909 9.44133 0.424753 9.29668 0.544985L5.50001 3.71124L1.70334 0.651235C1.59937 0.564618 1.47276 0.509596 1.3385 0.492682C1.20423 0.475767 1.06793 0.497667 0.945725 0.555789C0.823519 0.613912 0.720519 0.705826 0.648913 0.820654C0.577308 0.935482 0.540093 1.06842 0.541675 1.20373Z" fill="#303030"/>
</svg>
