<svg width="17" height="17" viewBox="0 0 17 17" fill="none" xmlns="http://www.w3.org/2000/svg">
<path d="M7.20373 13.4583C7.30956 13.4587 7.41411 13.4353 7.50972 13.39C7.60533 13.3446 7.68957 13.2784 7.75623 13.1962L11.1775 8.94624C11.2817 8.8195 11.3386 8.66052 11.3386 8.49645C11.3386 8.33238 11.2817 8.1734 11.1775 8.04666L7.63582 3.79666C7.51559 3.65201 7.34282 3.56104 7.15551 3.54377C6.96821 3.5265 6.78172 3.58434 6.63707 3.70458C6.49241 3.82481 6.40145 3.99758 6.38418 4.18488C6.36691 4.37218 6.42475 4.55867 6.54498 4.70333L9.71124 8.49999L6.65124 12.2967C6.56462 12.4006 6.5096 12.5272 6.49268 12.6615C6.47577 12.7958 6.49767 12.9321 6.55579 13.0543C6.61391 13.1765 6.70583 13.2795 6.82065 13.3511C6.93548 13.4227 7.06842 13.4599 7.20373 13.4583Z" fill="black"/>
</svg>
