<svg width="18" height="16" viewBox="0 0 18 16" fill="none" xmlns="http://www.w3.org/2000/svg">
<path d="M7.62744 12.6666C7.73948 12.667 7.85019 12.645 7.95143 12.6023C8.05266 12.5596 8.14185 12.4973 8.21244 12.42L11.8349 8.41996C11.9452 8.30067 12.0056 8.15104 12.0056 7.99663C12.0056 7.84221 11.9452 7.69258 11.8349 7.57329L8.08494 3.57329C7.95763 3.43715 7.7747 3.35153 7.57638 3.33528C7.37806 3.31903 7.1806 3.37347 7.02744 3.48663C6.87427 3.59979 6.77796 3.76239 6.75967 3.93868C6.74139 4.11496 6.80263 4.29048 6.92994 4.42663L10.2824 7.99996L7.04244 11.5733C6.95072 11.6712 6.89247 11.7903 6.87456 11.9167C6.85665 12.043 6.87983 12.1713 6.94138 12.2863C7.00292 12.4014 7.10024 12.4983 7.22182 12.5657C7.3434 12.6331 7.48416 12.6681 7.62744 12.6666Z" fill="#303030"/>
</svg>
